0
SECTION
2
HEADER
9
$INSUNITS
70
4
9
$ACADVER
1
AC1014
9
$HANDSEED
5
FFFF
0
ENDSEC
0
SECTION
2
TABLES
0
TABLE
2
VPORT
5
8
100
AcDbSymbolTable
0
ENDTAB
0
TABLE
2
LTYPE
5
5
100
AcDbSymbolTable
0
LTYPE
5
14
100
AcDbSymbolTableRecord
100
AcDbLinetypeTableRecord
2
BYBLOCK
70
0
0
LTYPE
5
15
100
AcDbSymbolTableRecord
100
AcDbLinetypeTableRecord
2
BYLAYER
70
0
0
ENDTAB
0
TABLE
2
LAYER
5
2
100
AcDbSymbolTable
70
2
0
LAYER
5
50
100
AcDbSymbolTableRecord
100
AcDbLayerTableRecord
2
0
70
0
6
CONTINUOUS
0
ENDTAB
0
TABLE
2
STYLE
5
3
100
AcDbSymbolTable
70
1
0
STYLE
5
11
100
AcDbSymbolTableRecord
100
AcDbTextStyleTableRecord
2
STANDARD
70
0
0
ENDTAB
0
TABLE
2
VIEW
5
6
100
AcDbSymbolTable
70
0
0
ENDTAB
0
TABLE
2
UCS
5
7
100
AcDbSymbolTable
70
0
0
ENDTAB
0
TABLE
2
APPID
5
9
100
AcDbSymbolTable
70
2
0
APPID
5
12
100
AcDbSymbolTableRecord
100
AcDbRegAppTableRecord
2
ACAD
70
0
0
ENDTAB
0
TABLE
2
DIMSTYLE
5
A
100
AcDbSymbolTable
70
1
0
ENDTAB
0
TABLE
2
BLOCK_RECORD
5
1
100
AcDbSymbolTable
70
1
0
BLOCK_RECORD
5
1F
100
AcDbSymbolTableRecord
100
AcDbBlockTableRecord
2
*MODEL_SPACE
0
BLOCK_RECORD
5
1B
100
AcDbSymbolTableRecord
100
AcDbBlockTableRecord
2
*PAPER_SPACE
0
ENDTAB
0
ENDSEC
0
SECTION
2
BLOCKS
0
BLOCK
5
20
100
AcDbEntity
100
AcDbBlockBegin
2
*MODEL_SPACE
0
ENDBLK
5
21
100
AcDbEntity
100
AcDbBlockEnd
0
BLOCK
5
1C
100
AcDbEntity
100
AcDbBlockBegin
2
*PAPER_SPACE
0
ENDBLK
5
1D
100
AcDbEntity
100
AcDbBlockEnd
0
ENDSEC
0
SECTION
2
ENTITIES
0
LWPOLYLINE
5
100
100
AcDbEntity
8
0
100
AcDbPolyline
90
8
70
1
43
0.0
10
185.03125
20
-69.029000000000011
10
169.65000000000001
20
-69.029000000000011
42
0.41421356237307944
10
169.14999999999998
20
-69.529000000000025
10
169.14999999999998
20
-82.529000000000039
42
0.41421356237313667
10
169.65000000000001
20
-83.029000000000053
10
185.03125
20
-83.029000000000067
42
0.4142135623730534
10
185.53125
20
-82.529000000000039
10
185.53125
20
-69.529000000000039
42
0.41421356237313145
0
LWPOLYLINE
5
101
100
AcDbEntity
8
0
100
AcDbPolyline
90
8
70
1
43
0.0
10
10.106250000000001
20
-83.029000000000025
10
25.487500000000004
20
-83.029000000000053
42
0.41421356237309243
10
25.987500000000011
20
-82.529000000000039
10
25.987500000000004
20
-69.529000000000011
42
0.41421356237309764
10
25.487500000000004
20
-69.029000000000011
10
10.106250000000001
20
-69.029000000000039
42
0.41421356237310025
10
9.6062500000000028
20
-69.529000000000053
10
9.6062500000000011
20
-82.529000000000053
42
0.41421356237307422
0
LWPOLYLINE
5
102
100
AcDbEntity
8
0
100
AcDbPolyline
90
8
70
1
43
0.0
10
206.46249999999998
20
-69.029000000000011
10
188.70000000000002
20
-69.029000000000011
42
0.41421356237307944
10
188.19999999999999
20
-69.529000000000025
10
188.19999999999999
20
-82.529000000000039
42
0.41421356237313667
10
188.70000000000002
20
-83.029000000000053
10
206.46249999999998
20
-83.029000000000067
42
0.4142135623730534
10
206.96249999999998
20
-82.529000000000039
10
206.96249999999998
20
-69.529000000000039
42
0.41421356237313145
0
LWPOLYLINE
5
103
100
AcDbEntity
8
0
100
AcDbPolyline
90
8
70
1
43
0.0
10
227.89375000000001
20
-69.029000000000011
10
212.51249999999999
20
-69.029000000000011
42
0.41421356237302737
10
212.01249999999999
20
-69.529000000000025
10
212.01249999999999
20
-82.529000000000039
42
0.41421356237310542
10
212.51249999999999
20
-83.029000000000053
10
227.89375000000001
20
-83.029000000000067
42
0.4142135623730222
10
228.39375000000001
20
-82.529000000000039
10
228.39375000000001
20
-69.529000000000039
42
0.41421356237312101
0
LWPOLYLINE
5
104
100
AcDbEntity
8
0
100
AcDbPolyline
90
8
70
1
43
0.0
10
232.29999999999995
20
-9.3540000000000418
42
-0.41421356237310542
10
233.29999999999998
20
-10.354000000000019
10
233.29999999999998
20
-84.554000000000045
42
-0.41421356237310542
10
232.29999999999995
20
-85.554000000000045
10
5.7000000000000011
20
-85.554000000000045
42
-0.41421356237309664
10
4.7000000000000002
20
-84.554000000000045
10
4.7000000000000055
20
-10.354000000000013
42
-0.41421356237309404
10
5.7000000000000028
20
-9.354000000000017
0
CIRCLE
5
105
100
AcDbEntity
8
0
100
AcDbCircle
10
42.799999999999983
20
-18.878545825799918
30
4.4408920985006262e-15
40
1.9999999999999973
210
0
220
-1.3877787807814454e-17
230
1
0
CIRCLE
5
106
100
AcDbEntity
8
0
100
AcDbCircle
10
23.79999999999999
20
-66.503545825799961
30
4.4408920985006262e-15
40
2.0000000000000018
210
0
220
-1.3877787807814454e-17
230
1
0
CIRCLE
5
107
100
AcDbEntity
8
0
100
AcDbCircle
10
214.19999999999999
20
-66.503545825799961
30
4.4408920985006262e-15
40
1.9999999999999931
210
0
220
-1.3877787807814457e-17
230
1
0
CIRCLE
5
108
100
AcDbEntity
8
0
100
AcDbCircle
10
214.19999999999999
20
-28.403545825799927
30
4.4408920985006262e-15
40
1.9999999999999931
210
0
220
-1.3877787807814457e-17
230
1
0
LWPOLYLINE
5
109
100
AcDbEntity
8
0
100
AcDbPolyline
90
20
70
1
43
0.0
10
163.01300000000001
20
-81.529000000000039
42
-0.41421356237301177
10
162.51300000000001
20
-82.029000000000053
10
154.57500000000002
20
-82.029000000000025
10
154.57500000000002
20
-82.529000000000039
42
-0.41421356237306384
10
154.07500000000002
20
-83.029000000000067
10
133.93125000000001
20
-83.029000000000067
42
-0.4142135623730534
10
133.43124999999998
20
-82.529000000000053
10
133.43125000000001
20
-82.029000000000053
10
125.49325000000002
20
-82.029000000000053
42
-0.4142135623730534
10
124.99325
20
-81.529000000000039
10
124.99325
20
-67.529000000000025
42
-0.41421356237306384
10
125.49325000000002
20
-67.029000000000025
10
138.63700000000003
20
-67.029000000000025
42
-0.41421356237307422
10
139.13700000000003
20
-67.529000000000025
10
139.13700000000003
20
-69.029000000000011
10
148.86925000000002
20
-69.029000000000025
10
148.86925000000002
20
-67.529000000000025
42
-0.41421356237308982
10
149.36925000000002
20
-67.029000000000025
10
162.51300000000001
20
-67.029000000000053
42
-0.41421356237312101
10
163.01300000000001
20
-67.529000000000025
0
LWPOLYLINE
5
110
100
AcDbEntity
8
0
100
AcDbPolyline
90
20
70
1
43
0.0
10
85.806250000000006
20
-82.029000000000053
10
85.806250000000006
20
-82.529000000000053
42
0.41421356237307422
10
86.30625000000002
20
-83.029000000000067
10
106.45000000000002
20
-83.029000000000067
42
0.41421356237306384
10
106.95000000000002
20
-82.529000000000039
10
106.95000000000002
20
-82.029000000000025
10
112.50675000000001
20
-82.029000000000053
42
0.4142135623730846
10
113.00675000000001
20
-81.529000000000025
10
113.00675000000001
20
-67.529000000000025
42
0.41421356237309503
10
112.50675000000001
20
-67.029000000000025
10
101.74425000000001
20
-67.029000000000025
42
0.414213562373069
10
101.24425000000001
20
-67.529000000000025
10
101.24425000000002
20
-69.029000000000025
10
89.130750000000035
20
-69.029000000000011
10
89.130750000000035
20
-67.529000000000025
42
0.41421356237309503
10
88.63075000000002
20
-67.029000000000025
10
77.868250000000003
20
-67.029000000000025
42
0.41421356237308982
10
77.368250000000003
20
-67.529000000000025
10
77.368250000000003
20
-81.529000000000039
42
0.41421356237307422
10
77.868250000000003
20
-82.029000000000025
0
LWPOLYLINE
5
111
100
AcDbEntity
8
0
100
AcDbPolyline
90
8
70
1
43
0.0
10
122.50000000000001
20
-81.529000000000039
42
-0.4142135623730534
10
122.00000000000001
20
-82.029000000000053
10
116.00000000000001
20
-82.029000000000053
42
-0.41421356237307422
10
115.5
20
-81.529000000000039
10
115.5
20
-67.529000000000025
42
-0.4142135623730846
10
116.00000000000001
20
-67.029000000000025
10
122.00000000000001
20
-67.029000000000025
42
-0.41421356237307422
10
122.50000000000001
20
-67.529000000000025
0
LWPOLYLINE
5
112
100
AcDbEntity
8
0
100
AcDbPolyline
90
8
70
1
43
0.0
10
187.41250000000002
20
-49.979000000000028
42
-0.41421356237312623
10
187.91250000000002
20
-50.479000000000021
10
187.91249999999997
20
-63.479000000000035
42
-0.4142135623730222
10
187.41250000000002
20
-63.979000000000035
10
174.41249999999999
20
-63.979000000000035
42
-0.41421356237313145
10
173.91249999999999
20
-63.479000000000035
10
173.91249999999997
20
-50.479000000000021
42
-0.41421356237307422
10
174.41249999999999
20
-49.979000000000021
0
LWPOLYLINE
5
113
100
AcDbEntity
8
0
100
AcDbPolyline
90
8
70
1
43
0.0
10
135.81250000000006
20
-50.479000000000021
42
-0.41421356237307422
10
136.31250000000003
20
-49.979000000000021
10
149.31250000000003
20
-49.979000000000006
42
-0.41421356237310025
10
149.81250000000003
20
-50.479000000000021
10
149.81250000000003
20
-63.479000000000035
42
-0.41421356237308982
10
149.31250000000003
20
-63.979000000000035
10
136.31250000000003
20
-63.979000000000042
42
-0.41421356237307422
10
135.81250000000003
20
-63.479000000000035
0
LWPOLYLINE
5
114
100
AcDbEntity
8
0
100
AcDbPolyline
90
8
70
1
43
0.0
10
214.39374999999995
20
-50.479000000000021
42
-0.41421356237307422
10
214.89374999999998
20
-49.979000000000021
10
227.89375000000001
20
-49.979000000000028
42
-0.41421356237312623
10
228.39375000000001
20
-50.479000000000021
10
228.39374999999995
20
-63.479000000000035
42
-0.4142135623730222
10
227.89375000000001
20
-63.979000000000035
10
214.89374999999998
20
-63.979000000000035
42
-0.41421356237313145
10
214.39374999999998
20
-63.479000000000035
0
LWPOLYLINE
5
115
100
AcDbEntity
8
0
100
AcDbPolyline
90
8
70
1
43
0.0
10
49.299999999999997
20
-69.029000000000011
10
31.537500000000001
20
-69.029000000000025
42
0.41421356237310025
10
31.037500000000001
20
-69.529000000000053
10
31.037500000000001
20
-82.529000000000053
42
0.41421356237308721
10
31.537500000000001
20
-83.029000000000025
10
49.299999999999997
20
-83.029000000000053
42
0.41421356237310025
10
49.800000000000004
20
-82.529000000000039
10
49.799999999999997
20
-69.529000000000011
42
0.41421356237310542
0
LWPOLYLINE
5
116
100
AcDbEntity
8
0
100
AcDbPolyline
90
8
70
1
43
0.0
10
192.96250000000001
20
-50.479000000000021
42
-0.4142135623730222
10
193.46249999999998
20
-49.979000000000021
10
206.46249999999998
20
-49.979000000000013
42
-0.41421356237313667
10
206.96249999999998
20
-50.479000000000021
10
206.96250000000003
20
-63.479000000000035
42
-0.41421356237307422
10
206.46249999999998
20
-63.979000000000035
10
193.46249999999998
20
-63.979000000000013
42
-0.41421356237312101
10
192.96249999999998
20
-63.479000000000035
0
LWPOLYLINE
5
117
100
AcDbEntity
8
0
100
AcDbPolyline
90
8
70
1
43
0.0
10
154.86250000000001
20
-50.479000000000021
42
-0.41421356237307422
10
155.36250000000001
20
-49.979000000000021
10
168.36250000000001
20
-49.979000000000028
42
-0.41421356237312623
10
168.86250000000001
20
-50.479000000000021
10
168.86249999999995
20
-63.479000000000035
42
-0.4142135623730222
10
168.36250000000001
20
-63.979000000000035
10
155.36250000000001
20
-63.979000000000042
42
-0.41421356237307422
10
154.86250000000001
20
-63.479000000000035
0
LWPOLYLINE
5
118
100
AcDbEntity
8
0
100
AcDbPolyline
90
8
70
1
43
0.0
10
223.13124999999999
20
-30.929000000000002
42
-0.41421356237310281
10
223.63124999999999
20
-31.429000000000023
10
223.63124999999997
20
-44.429000000000023
42
-0.41421356237302737
10
223.13124999999999
20
-44.92900000000003
10
210.13125000000002
20
-44.929000000000023
42
-0.41421356237312623
10
209.63125000000002
20
-44.42900000000003
10
209.63125000000002
20
-31.429000000000016
42
-0.41421356237304818
10
210.13125000000002
20
-30.929000000000023
0
LWPOLYLINE
5
119
100
AcDbEntity
8
0
100
AcDbPolyline
90
8
70
1
43
0.0
10
78.662500000000009
20
-50.479000000000021
42
-0.41421356237309503
10
79.162500000000009
20
-49.979000000000021
10
92.162500000000023
20
-49.979000000000006
42
-0.41421356237310025
10
92.662500000000023
20
-50.479000000000021
10
92.662500000000023
20
-63.479000000000035
42
-0.41421356237308982
10
92.162500000000023
20
-63.979000000000035
10
79.162500000000009
20
-63.979000000000035
42
-0.41421356237309503
10
78.662500000000009
20
-63.479000000000035
0
LWPOLYLINE
5
120
100
AcDbEntity
8
0
100
AcDbPolyline
90
8
70
1
43
0.0
10
68.349999999999994
20
-69.029000000000011
10
52.96875
20
-69.029000000000025
42
0.41421356237310025
10
52.46875
20
-69.529000000000053
10
52.46875
20
-82.529000000000053
42
0.41421356237307422
10
52.96875
20
-83.029000000000025
10
68.349999999999994
20
-83.029000000000053
42
0.41421356237309503
10
68.849999999999994
20
-82.529000000000039
10
68.849999999999994
20
-69.529000000000011
42
0.41421356237309503
0
LWPOLYLINE
5
121
100
AcDbEntity
8
0
100
AcDbPolyline
90
8
70
1
43
0.0
10
97.71250000000002
20
-50.479000000000021
42
-0.41421356237307422
10
98.212500000000006
20
-49.979000000000021
10
111.21250000000001
20
-49.979000000000006
42
-0.41421356237307944
10
111.71250000000002
20
-50.479000000000021
10
111.71250000000002
20
-63.479000000000035
42
-0.414213562373069
10
111.21250000000002
20
-63.979000000000035
10
98.212500000000006
20
-63.979000000000042
42
-0.41421356237307422
10
97.712500000000006
20
-63.479000000000035
0
LWPOLYLINE
5
122
100
AcDbEntity
8
0
100
AcDbPolyline
90
8
70
1
43
0.0
10
14.368749999999997
20
-50.479000000000021
10
14.368749999999997
20
-63.479000000000028
42
0.41421356237309892
10
14.868749999999999
20
-63.979000000000035
10
27.868750000000002
20
-63.979000000000035
42
0.41421356237309503
10
28.368749999999999
20
-63.479000000000035
10
28.368749999999999
20
-50.479000000000021
42
0.41421356237309764
10
27.868750000000002
20
-49.979000000000042
10
14.868749999999999
20
-49.979000000000021
42
0.41421356237309764
0
LWPOLYLINE
5
123
100
AcDbEntity
8
0
100
AcDbPolyline
90
8
70
1
43
0.0
10
59.612500000000004
20
-50.479000000000021
42
-0.41421356237310542
10
60.112500000000004
20
-49.979000000000021
10
73.112499999999997
20
-49.979000000000021
42
-0.41421356237310542
10
73.612499999999997
20
-50.479000000000021
10
73.612499999999997
20
-63.479000000000035
42
-0.41421356237309503
10
73.112499999999997
20
-63.979000000000035
10
60.112500000000004
20
-63.979000000000035
42
-0.41421356237309503
10
59.612500000000004
20
-63.479000000000035
0
LWPOLYLINE
5
124
100
AcDbEntity
8
0
100
AcDbPolyline
90
8
70
1
43
0.0
10
40.5625
20
-50.479000000000021
42
-0.41421356237309503
10
41.0625
20
-49.979000000000021
10
54.0625
20
-49.979000000000021
42
-0.41421356237310542
10
54.5625
20
-50.479000000000021
10
54.5625
20
-63.479000000000035
42
-0.41421356237309503
10
54.0625
20
-63.979000000000035
10
41.0625
20
-63.979000000000035
42
-0.41421356237309503
10
40.5625
20
-63.479000000000035
0
LWPOLYLINE
5
125
100
AcDbEntity
8
0
100
AcDbPolyline
90
8
70
1
43
0.0
10
183.4375
20
-31.429000000000023
42
-0.41421356237308204
10
183.9375
20
-30.929000000000023
10
196.9375
20
-30.929000000000002
42
-0.41421356237310281
10
197.43750000000003
20
-31.429000000000023
10
197.4375
20
-44.429000000000023
42
-0.41421356237302737
10
196.9375
20
-44.92900000000003
10
183.9375
20
-44.929000000000045
42
-0.41421356237313667
10
183.4375
20
-44.42900000000003
0
LWPOLYLINE
5
126
100
AcDbEntity
8
0
100
AcDbPolyline
90
8
70
1
43
0.0
10
107.23750000000001
20
-31.429000000000023
42
-0.41421356237308721
10
107.73750000000001
20
-30.929000000000023
10
120.73750000000001
20
-30.929000000000016
42
-0.41421356237309503
10
121.23750000000001
20
-31.429000000000023
10
121.23750000000001
20
-44.429000000000023
42
-0.41421356237311063
10
120.73750000000001
20
-44.92900000000003
10
107.73750000000004
20
-44.929000000000052
42
-0.41421356237307944
10
107.23750000000001
20
-44.42900000000003
0
LWPOLYLINE
5
127
100
AcDbEntity
8
0
100
AcDbPolyline
90
8
70
1
43
0.0
10
116.76250000000003
20
-50.479000000000021
42
-0.41421356237307422
10
117.26250000000002
20
-49.979000000000021
10
130.26250000000002
20
-49.979000000000006
42
-0.41421356237310025
10
130.76250000000002
20
-50.479000000000021
10
130.76250000000002
20
-63.479000000000035
42
-0.41421356237308982
10
130.26250000000002
20
-63.979000000000035
10
117.26250000000002
20
-63.979000000000042
42
-0.41421356237307422
10
116.76250000000002
20
-63.479000000000035
0
LWPOLYLINE
5
128
100
AcDbEntity
8
0
100
AcDbPolyline
90
8
70
1
43
0.0
10
164.38749999999999
20
-31.429000000000023
42
-0.41421356237308204
10
164.88749999999999
20
-30.929000000000023
10
177.88749999999999
20
-30.929000000000002
42
-0.41421356237310281
10
178.38750000000002
20
-31.429000000000023
10
178.38749999999999
20
-44.429000000000023
42
-0.41421356237302737
10
177.88749999999999
20
-44.92900000000003
10
164.88749999999999
20
-44.929000000000045
42
-0.41421356237313667
10
164.38749999999999
20
-44.42900000000003
0
LWPOLYLINE
5
129
100
AcDbEntity
8
0
100
AcDbPolyline
90
8
70
1
43
0.0
10
126.28750000000002
20
-31.429000000000016
10
126.28750000000002
20
-44.429000000000023
42
0.4142135623730846
10
126.78750000000002
20
-44.92900000000003
10
139.78750000000002
20
-44.92900000000003
42
0.41421356237311063
10
140.28750000000002
20
-44.429000000000023
10
140.28750000000002
20
-31.429000000000023
42
0.41421356237309503
10
139.78750000000002
20
-30.929000000000023
10
126.78750000000002
20
-30.929000000000023
42
0.4142135623730846
0
LWPOLYLINE
5
130
100
AcDbEntity
8
0
100
AcDbPolyline
90
8
70
1
43
0.0
10
69.137500000000003
20
-31.429000000000023
42
-0.41421356237309503
10
69.637500000000003
20
-30.929000000000023
10
82.637500000000003
20
-30.92900000000003
42
-0.41421356237308721
10
83.137500000000003
20
-31.429000000000023
10
83.137499999999989
20
-44.429000000000023
42
-0.41421356237307944
10
82.637500000000003
20
-44.92900000000003
10
69.637500000000003
20
-44.92900000000003
42
-0.41421356237309503
10
69.137500000000003
20
-44.42900000000003
0
LWPOLYLINE
5
131
100
AcDbEntity
8
0
100
AcDbPolyline
90
8
70
1
43
0.0
10
50.087500000000006
20
-31.429000000000023
42
-0.41421356237309764
10
50.587499999999999
20
-30.929000000000023
10
63.587500000000006
20
-30.92900000000002
42
-0.41421356237309764
10
64.087500000000006
20
-31.429000000000023
10
64.087500000000006
20
-44.429000000000023
42
-0.41421356237311063
10
63.587500000000006
20
-44.92900000000003
10
50.587499999999999
20
-44.92900000000003
42
-0.41421356237310542
10
50.087499999999999
20
-44.42900000000003
0
LWPOLYLINE
5
132
100
AcDbEntity
8
0
100
AcDbPolyline
90
8
70
1
43
0.0
10
178.67499999999995
20
-12.379000000000016
42
-0.41421356237307555
10
179.17500000000001
20
-11.879000000000016
10
192.17499999999998
20
-11.879000000000012
42
-0.41421356237313406
10
192.67499999999998
20
-12.379000000000016
10
192.67500000000001
20
-25.379000000000023
42
-0.41421356237307683
10
192.17499999999998
20
-25.879000000000026
10
179.17500000000001
20
-25.879000000000019
42
-0.41421356237313145
10
178.67500000000001
20
-25.379000000000023
0
LWPOLYLINE
5
133
100
AcDbEntity
8
0
100
AcDbPolyline
90
8
70
1
43
0.0
10
140.57500000000002
20
-12.379000000000016
42
-0.41421356237309243
10
141.07500000000002
20
-11.879000000000016
10
154.07500000000002
20
-11.879000000000007
42
-0.41421356237307555
10
154.57500000000002
20
-12.379000000000016
10
154.57500000000002
20
-25.379000000000023
42
-0.41421356237307161
10
154.07500000000002
20
-25.879000000000026
10
141.07500000000002
20
-25.879000000000026
42
-0.41421356237309243
10
140.57500000000002
20
-25.379000000000023
0
LWPOLYLINE
5
134
100
AcDbEntity
8
0
100
AcDbPolyline
90
8
70
1
43
0.0
10
159.62500000000003
20
-12.379000000000016
10
159.62500000000003
20
-25.379000000000023
42
0.41421356237309243
10
160.12500000000003
20
-25.879000000000019
10
173.125
20
-25.879000000000026
42
0.41421356237302481
10
173.625
20
-25.379000000000023
10
173.625
20
-12.379000000000016
42
0.41421356237312362
10
173.125
20
-11.879000000000019
10
160.12500000000003
20
-11.879000000000016
42
0.41421356237309243
0
LWPOLYLINE
5
135
100
AcDbEntity
8
0
100
AcDbPolyline
90
8
70
1
43
0.0
10
158.83750000000001
20
-30.929000000000016
42
-0.41421356237307422
10
159.33750000000001
20
-31.429000000000023
10
159.33750000000001
20
-44.429000000000023
42
-0.41421356237307944
10
158.83750000000001
20
-44.92900000000003
10
145.83750000000003
20
-44.929000000000052
42
-0.41421356237307944
10
145.33750000000001
20
-44.42900000000003
10
145.33750000000001
20
-31.429000000000016
42
-0.4142135623730846
10
145.83750000000001
20
-30.929000000000023
0
LWPOLYLINE
5
136
100
AcDbEntity
8
0
100
AcDbPolyline
90
8
70
1
43
0.0
10
121.52500000000002
20
-12.379000000000016
42
-0.41421356237307161
10
122.02500000000002
20
-11.879000000000016
10
135.02500000000001
20
-11.879000000000007
42
-0.41421356237307555
10
135.52500000000001
20
-12.379000000000016
10
135.52500000000001
20
-25.379000000000023
42
-0.41421356237307161
10
135.02500000000001
20
-25.879000000000026
10
122.02500000000002
20
-25.879000000000026
42
-0.41421356237307161
10
121.52500000000002
20
-25.379000000000023
0
LWPOLYLINE
5
137
100
AcDbEntity
8
0
100
AcDbPolyline
90
8
70
1
43
0.0
10
88.1875
20
-31.429000000000016
10
88.1875
20
-44.429000000000023
42
0.4142135623730846
10
88.6875
20
-44.929000000000052
10
101.68750000000001
20
-44.92900000000003
42
0.41421356237307944
10
102.18750000000001
20
-44.429000000000023
10
102.18750000000001
20
-31.429000000000023
42
0.41421356237307422
10
101.68750000000001
20
-30.929000000000023
10
88.6875
20
-30.929000000000023
42
0.4142135623730846
0
LWPOLYLINE
5
138
100
AcDbEntity
8
0
100
AcDbPolyline
90
8
70
1
43
0.0
10
216.77500000000003
20
-12.379000000000016
42
-0.41421356237302348
10
217.27499999999998
20
-11.879000000000016
10
230.27500000000001
20
-11.879000000000012
42
-0.41421356237313406
10
230.77500000000001
20
-12.379000000000016
10
230.77500000000003
20
-25.379000000000023
42
-0.41421356237307683
10
230.27500000000001
20
-25.879000000000026
10
217.27499999999998
20
-25.87900000000004
42
-0.41421356237310025
10
216.77499999999998
20
-25.379000000000023
0
LWPOLYLINE
5
139
100
AcDbEntity
8
0
100
AcDbPolyline
90
8
70
1
43
0.0
10
7.2249999999999996
20
-12.379000000000016
42
-0.41421356237309243
10
7.7249999999999996
20
-11.879000000000016
10
20.725000000000001
20
-11.879000000000017
42
-0.41421356237309243
10
21.225000000000005
20
-12.379000000000016
10
21.225000000000005
20
-25.379000000000023
42
-0.4142135623730846
10
20.725000000000001
20
-25.879000000000026
10
7.7249999999999996
20
-25.879000000000019
42
-0.41421356237309503
10
7.2249999999999996
20
-25.379000000000023
0
LWPOLYLINE
5
140
100
AcDbEntity
8
0
100
AcDbPolyline
90
8
70
1
43
0.0
10
83.424999999999997
20
-12.379000000000016
42
-0.41421356237307161
10
83.924999999999997
20
-11.879000000000016
10
96.925000000000011
20
-11.879000000000007
42
-0.41421356237307555
10
97.425000000000011
20
-12.379000000000016
10
97.425000000000011
20
-25.379000000000023
42
-0.41421356237307161
10
96.925000000000011
20
-25.879000000000026
10
83.924999999999997
20
-25.87900000000003
42
-0.41421356237307422
10
83.424999999999997
20
-25.379000000000023
0
LWPOLYLINE
5
141
100
AcDbEntity
8
0
100
AcDbPolyline
90
8
70
1
43
0.0
10
102.47500000000001
20
-12.379000000000016
10
102.47500000000001
20
-25.379000000000023
42
0.41421356237307161
10
102.97500000000001
20
-25.879000000000019
10
115.97500000000002
20
-25.879000000000026
42
0.41421356237307161
10
116.47500000000002
20
-25.379000000000023
10
116.47500000000002
20
-12.379000000000016
42
0.41421356237307555
10
115.97500000000002
20
-11.879000000000019
10
102.97500000000001
20
-11.879000000000016
42
0.41421356237307161
0
LWPOLYLINE
5
142
100
AcDbEntity
8
0
100
AcDbPolyline
90
8
70
1
43
0.0
10
45.324999999999996
20
-12.379000000000016
42
-0.41421356237309631
10
45.824999999999996
20
-11.879000000000016
10
58.825000000000003
20
-11.879000000000012
42
-0.41421356237309764
10
59.325000000000003
20
-12.379000000000016
10
59.324999999999989
20
-25.379000000000023
42
-0.41421356237308982
10
58.825000000000003
20
-25.879000000000026
10
45.824999999999996
20
-25.879000000000026
42
-0.41421356237309764
10
45.324999999999996
20
-25.379000000000023
0
LWPOLYLINE
5
143
100
AcDbEntity
8
0
100
AcDbPolyline
90
8
70
1
43
0.0
10
197.72499999999997
20
-12.379000000000016
42
-0.41421356237307555
10
198.22500000000002
20
-11.879000000000016
10
211.22500000000002
20
-11.87900000000003
42
-0.41421356237312362
10
211.72500000000002
20
-12.379000000000016
10
211.72499999999999
20
-25.379000000000023
42
-0.41421356237302481
10
211.22500000000002
20
-25.879000000000026
10
198.22500000000002
20
-25.879000000000019
42
-0.41421356237313145
10
197.72500000000002
20
-25.379000000000023
0
LWPOLYLINE
5
144
100
AcDbEntity
8
0
100
AcDbPolyline
90
8
70
1
43
0.0
10
31.037500000000001
20
-31.429000000000023
42
-0.41421356237309503
10
31.537500000000001
20
-30.929000000000023
10
44.537499999999994
20
-30.92900000000002
42
-0.41421356237308721
10
45.037500000000001
20
-31.429000000000023
10
45.037500000000001
20
-44.429000000000023
42
-0.41421356237310025
10
44.537500000000001
20
-44.92900000000003
10
31.537500000000001
20
-44.929000000000023
42
-0.41421356237309764
10
31.037500000000001
20
-44.42900000000003
0
LWPOLYLINE
5
145
100
AcDbEntity
8
0
100
AcDbPolyline
90
8
70
1
43
0.0
10
9.6062500000000028
20
-31.429000000000016
10
9.6062500000000028
20
-44.429000000000023
42
0.41421356237310153
10
10.106250000000001
20
-44.92900000000003
10
23.106250000000003
20
-44.92900000000003
42
0.41421356237310281
10
23.606250000000003
20
-44.429000000000023
10
23.606250000000006
20
-31.429000000000023
42
0.4142135623730846
10
23.106250000000003
20
-30.929000000000023
10
10.106250000000001
20
-30.929000000000023
42
0.4142135623730937
0
LWPOLYLINE
5
146
100
AcDbEntity
8
0
100
AcDbPolyline
90
8
70
1
43
0.0
10
26.275000000000006
20
-12.379000000000016
42
-0.41421356237309503
10
26.775000000000002
20
-11.879000000000016
10
39.774999999999999
20
-11.879000000000016
42
-0.41421356237308332
10
40.275000000000006
20
-12.379000000000016
10
40.275000000000006
20
-25.379000000000023
42
-0.41421356237309503
10
39.775000000000006
20
-25.879000000000026
10
26.775000000000002
20
-25.879000000000019
42
-0.41421356237309503
10
26.275000000000006
20
-25.379000000000023
0
LWPOLYLINE
5
147
100
AcDbEntity
8
0
100
AcDbPolyline
90
8
70
1
43
0.0
10
77.875
20
-11.879000000000012
42
-0.41421356237309764
10
78.375
20
-12.379000000000016
10
78.374999999999986
20
-25.379000000000023
42
-0.41421356237308982
10
77.875
20
-25.879000000000026
10
64.875
20
-25.879000000000019
42
-0.41421356237309503
10
64.375
20
-25.379000000000023
10
64.375
20
-12.379000000000016
42
-0.4142135623730937
10
64.875
20
-11.879000000000016
0
ENDSEC
0
SECTION
2
OBJECTS
0
DICTIONARY
5
C
100
AcDbDictionary
3
ACAD_GROUP
350
D
3
ACAD_MLINESTYLE
350
17
0
DICTIONARY
5
D
100
AcDbDictionary
0
DICTIONARY
5
1A
330
C
100
AcDbDictionary
0
DICTIONARY
5
17
100
AcDbDictionary
0
ENDSEC
0
EOF
