M48
; DRILL file {KiCad (6.0.1)} date Thu Mar  3 09:55:53 2022
; FORMAT={-:-/ absolute / metric / decimal}
; #@! TF.CreationDate,2022-03-03T09:55:53+01:00
; #@! TF.GenerationSoftware,Kicad,Pcbnew,(6.0.1)
; #@! TF.FileFunction,Plated,1,2,PTH
FMAT,2
METRIC
; #@! TA.AperFunction,Plated,PTH,ViaDrill
T1C0.400
; #@! TA.AperFunction,Plated,PTH,ComponentDrill
T2C0.600
; #@! TA.AperFunction,Plated,PTH,ComponentDrill
T3C1.000
; #@! TA.AperFunction,Plated,PTH,ComponentDrill
T4C1.470
; #@! TA.AperFunction,Plated,PTH,ComponentDrill
T5C2.200
%
G90
G05
T1
X43.79Y-97.485
X43.842Y-98.483
X45.085Y-76.327
X49.733Y-67.716
X51.003Y-66.497
X53.289Y-66.497
X54.61Y-67.716
X55.169Y-99.568
X56.439Y-76.352
X57.302Y-87.884
X62.586Y-90.729
X63.246Y-102.311
X67.92Y-110.287
X73.304Y-95.555
X85.7Y-99.67
X104.75Y-99.67
X123.85Y-99.873
X142.85Y-99.72
X161.9Y-99.771
X181.0Y-99.771
X200.05Y-99.67
X219.1Y-99.67
T3
X36.83Y-97.226
X36.83Y-99.766
T4
X39.052Y-67.31
X41.434Y-86.36
X41.434Y-124.46
X43.815Y-124.46
X45.402Y-64.77
X46.196Y-105.41
X47.784Y-83.82
X47.784Y-121.92
X50.165Y-121.92
X52.546Y-102.87
X58.102Y-67.31
X62.865Y-86.36
X62.865Y-124.46
X64.453Y-64.77
X65.246Y-124.46
X67.627Y-124.46
X69.215Y-83.82
X69.215Y-121.92
X71.596Y-121.92
X72.39Y-105.41
X73.977Y-121.92
X77.153Y-67.31
X78.74Y-102.87
X81.915Y-86.36
X83.502Y-64.77
X84.296Y-124.46
X86.677Y-124.46
X88.265Y-83.82
X90.646Y-121.92
X91.44Y-105.41
X93.027Y-121.92
X96.203Y-67.31
X97.79Y-102.87
X100.965Y-86.36
X102.552Y-64.77
X107.315Y-83.82
X110.49Y-105.41
X115.252Y-67.31
X116.84Y-102.87
X117.634Y-124.46
X120.015Y-86.36
X121.602Y-64.77
X122.396Y-124.46
X123.984Y-121.92
X124.777Y-124.46
X126.365Y-83.82
X128.746Y-121.92
X129.54Y-105.41
X131.127Y-121.92
X134.302Y-67.31
X135.89Y-102.87
X139.065Y-86.36
X140.653Y-64.77
X145.415Y-83.82
X148.59Y-105.41
X153.352Y-67.31
X154.94Y-102.87
X158.115Y-86.36
X159.702Y-64.77
X164.465Y-83.82
X165.259Y-124.46
X167.64Y-105.41
X170.021Y-124.46
X171.609Y-121.92
X172.403Y-67.31
X172.403Y-124.46
X173.99Y-102.87
X176.371Y-121.92
X177.165Y-86.36
X178.752Y-64.77
X178.752Y-121.92
X183.515Y-83.82
X186.69Y-105.41
X191.452Y-67.31
X193.04Y-102.87
X196.215Y-86.36
X197.802Y-64.77
X200.977Y-124.46
X202.565Y-83.82
X203.359Y-124.46
X205.74Y-105.41
X207.327Y-121.92
X209.709Y-121.92
X210.502Y-67.31
X212.09Y-102.87
X215.265Y-86.36
X216.852Y-64.77
X220.028Y-124.46
X221.615Y-83.82
X222.409Y-124.46
X224.79Y-105.41
X224.79Y-124.46
X226.377Y-121.92
X228.759Y-121.92
X229.552Y-67.31
X231.14Y-102.87
X231.14Y-121.92
X235.903Y-64.77
X241.459Y-86.36
X243.84Y-124.46
X246.221Y-105.41
X246.221Y-124.46
X247.809Y-83.82
X248.602Y-67.31
X250.19Y-121.92
X252.571Y-102.87
X252.571Y-121.92
X254.952Y-64.77
T5
X52.387Y-117.475
X71.438Y-69.85
X242.887Y-79.375
X242.887Y-117.475
T2
X47.877Y-58.975G85X47.877Y-59.575
G05
X47.877Y-62.905G85X47.877Y-64.005
G05
X56.517Y-58.975G85X56.517Y-59.575
G05
X56.517Y-62.905G85X56.517Y-64.005
G05
T0
M30
