%TF.GenerationSoftware,KiCad,Pcbnew,(6.0.1)*%
%TF.CreationDate,2022-03-03T09:55:52+01:00*%
%TF.ProjectId,bm42,626d3432-2e6b-4696-9361-645f70636258,rev?*%
%TF.SameCoordinates,Original*%
%TF.FileFunction,Paste,Bot*%
%TF.FilePolarity,Positive*%
%FSLAX46Y46*%
G04 Gerber Fmt 4.6, Leading zero omitted, Abs format (unit mm)*
G04 Created by KiCad (PCBNEW (6.0.1)) date 2022-03-03 09:55:52*
%MOMM*%
%LPD*%
G01*
G04 APERTURE LIST*
G04 Aperture macros list*
%AMRoundRect*
0 Rectangle with rounded corners*
0 $1 Rounding radius*
0 $2 $3 $4 $5 $6 $7 $8 $9 X,Y pos of 4 corners*
0 Add a 4 corners polygon primitive as box body*
4,1,4,$2,$3,$4,$5,$6,$7,$8,$9,$2,$3,0*
0 Add four circle primitives for the rounded corners*
1,1,$1+$1,$2,$3*
1,1,$1+$1,$4,$5*
1,1,$1+$1,$6,$7*
1,1,$1+$1,$8,$9*
0 Add four rect primitives between the rounded corners*
20,1,$1+$1,$2,$3,$4,$5,0*
20,1,$1+$1,$4,$5,$6,$7,0*
20,1,$1+$1,$6,$7,$8,$9,0*
20,1,$1+$1,$8,$9,$2,$3,0*%
%AMRotRect*
0 Rectangle, with rotation*
0 The origin of the aperture is its center*
0 $1 length*
0 $2 width*
0 $3 Rotation angle, in degrees counterclockwise*
0 Add horizontal line*
21,1,$1,$2,0,0,$3*%
G04 Aperture macros list end*
%ADD10RoundRect,0.250000X0.512652X0.159099X0.159099X0.512652X-0.512652X-0.159099X-0.159099X-0.512652X0*%
%ADD11RoundRect,0.250000X-0.262500X-0.450000X0.262500X-0.450000X0.262500X0.450000X-0.262500X0.450000X0*%
%ADD12RotRect,1.600000X0.550000X315.000000*%
%ADD13RotRect,1.600000X0.550000X225.000000*%
%ADD14R,0.800000X0.900000*%
%ADD15RoundRect,0.250000X0.262500X0.450000X-0.262500X0.450000X-0.262500X-0.450000X0.262500X-0.450000X0*%
%ADD16RoundRect,0.150000X0.512500X0.150000X-0.512500X0.150000X-0.512500X-0.150000X0.512500X-0.150000X0*%
%ADD17RotRect,1.400000X1.200000X45.000000*%
%ADD18RoundRect,0.250000X0.159099X-0.512652X0.512652X-0.159099X-0.159099X0.512652X-0.512652X0.159099X0*%
%ADD19RoundRect,0.250000X0.450000X-0.262500X0.450000X0.262500X-0.450000X0.262500X-0.450000X-0.262500X0*%
%ADD20RoundRect,0.250000X0.375000X0.625000X-0.375000X0.625000X-0.375000X-0.625000X0.375000X-0.625000X0*%
%ADD21RoundRect,0.250000X-0.450000X0.262500X-0.450000X-0.262500X0.450000X-0.262500X0.450000X0.262500X0*%
%ADD22RoundRect,0.250000X-0.159099X0.512652X-0.512652X0.159099X0.159099X-0.512652X0.512652X-0.159099X0*%
%ADD23RoundRect,0.250000X-0.250000X-0.475000X0.250000X-0.475000X0.250000X0.475000X-0.250000X0.475000X0*%
%ADD24R,0.600000X1.450000*%
%ADD25R,0.300000X1.450000*%
G04 APERTURE END LIST*
D10*
%TO.C,C2*%
X61080211Y-91782574D03*
X59736709Y-90439072D03*
%TD*%
D11*
%TO.C,R1*%
X39854500Y-62738000D03*
X41679500Y-62738000D03*
%TD*%
D12*
%TO.C,U1*%
X58299734Y-98699944D03*
X58865420Y-98134259D03*
X59431105Y-97568573D03*
X59996790Y-97002888D03*
X60562476Y-96437202D03*
X61128161Y-95871517D03*
X61693847Y-95305832D03*
X62259532Y-94740146D03*
D13*
X64310142Y-94740146D03*
X64875827Y-95305832D03*
X65441513Y-95871517D03*
X66007198Y-96437202D03*
X66572884Y-97002888D03*
X67138569Y-97568573D03*
X67704254Y-98134259D03*
X68269940Y-98699944D03*
D12*
X68269940Y-100750554D03*
X67704254Y-101316239D03*
X67138569Y-101881925D03*
X66572884Y-102447610D03*
X66007198Y-103013296D03*
X65441513Y-103578981D03*
X64875827Y-104144666D03*
X64310142Y-104710352D03*
D13*
X62259532Y-104710352D03*
X61693847Y-104144666D03*
X61128161Y-103578981D03*
X60562476Y-103013296D03*
X59996790Y-102447610D03*
X59431105Y-101881925D03*
X58865420Y-101316239D03*
X58299734Y-100750554D03*
%TD*%
D14*
%TO.C,D6*%
X223774000Y-73517000D03*
X222824000Y-71517000D03*
X224724000Y-71517000D03*
%TD*%
%TO.C,D19*%
X57150000Y-130794000D03*
X56200000Y-128794000D03*
X58100000Y-128794000D03*
%TD*%
%TO.C,D2*%
X90551000Y-73517000D03*
X89601000Y-71517000D03*
X91501000Y-71517000D03*
%TD*%
D10*
%TO.C,C3*%
X54806409Y-97980174D03*
X53462907Y-96636672D03*
%TD*%
D14*
%TO.C,D18*%
X219075000Y-111871000D03*
X218125000Y-109871000D03*
X220025000Y-109871000D03*
%TD*%
%TO.C,D11*%
X190500000Y-92821000D03*
X189550000Y-90821000D03*
X191450000Y-90821000D03*
%TD*%
%TO.C,D1*%
X42926000Y-76311000D03*
X41976000Y-74311000D03*
X43876000Y-74311000D03*
%TD*%
D15*
%TO.C,R5*%
X71676900Y-95402400D03*
X69851900Y-95402400D03*
%TD*%
D14*
%TO.C,D9*%
X114300000Y-92821000D03*
X113350000Y-90821000D03*
X115250000Y-90821000D03*
%TD*%
%TO.C,D23*%
X215646000Y-130794000D03*
X214696000Y-128794000D03*
X216596000Y-128794000D03*
%TD*%
%TO.C,D14*%
X85725000Y-111871000D03*
X84775000Y-109871000D03*
X86675000Y-109871000D03*
%TD*%
%TO.C,D15*%
X104775000Y-111871000D03*
X103825000Y-109871000D03*
X105725000Y-109871000D03*
%TD*%
%TO.C,D10*%
X152400000Y-92821000D03*
X151450000Y-90821000D03*
X153350000Y-90821000D03*
%TD*%
D16*
%TO.C,U2*%
X53410700Y-69052400D03*
X53410700Y-70002400D03*
X53410700Y-70952400D03*
X51135700Y-70952400D03*
X51135700Y-70002400D03*
X51135700Y-69052400D03*
%TD*%
D14*
%TO.C,D24*%
X238125000Y-130794000D03*
X237175000Y-128794000D03*
X239075000Y-128794000D03*
%TD*%
%TO.C,D8*%
X76200000Y-92821000D03*
X75250000Y-90821000D03*
X77150000Y-90821000D03*
%TD*%
D17*
%TO.C,X1*%
X55110742Y-95172777D03*
X56666377Y-93617142D03*
X57868458Y-94819223D03*
X56312823Y-96374858D03*
%TD*%
D18*
%TO.C,C4*%
X53723086Y-93488200D03*
X55066588Y-92144698D03*
%TD*%
D14*
%TO.C,D17*%
X180975000Y-111871000D03*
X180025000Y-109871000D03*
X181925000Y-109871000D03*
%TD*%
%TO.C,D16*%
X142875000Y-111871000D03*
X141925000Y-109871000D03*
X143825000Y-109871000D03*
%TD*%
%TO.C,D3*%
X109474000Y-73533000D03*
X108524000Y-71533000D03*
X110424000Y-71533000D03*
%TD*%
D19*
%TO.C,R6*%
X40640000Y-99362900D03*
X40640000Y-97537900D03*
%TD*%
D20*
%TO.C,F1*%
X53724000Y-73152000D03*
X50924000Y-73152000D03*
%TD*%
D14*
%TO.C,D12*%
X232029000Y-92821000D03*
X231079000Y-90821000D03*
X232979000Y-90821000D03*
%TD*%
D21*
%TO.C,R3*%
X53289200Y-84990300D03*
X53289200Y-86815300D03*
%TD*%
D22*
%TO.C,C6*%
X59040951Y-105703449D03*
X57697449Y-107046951D03*
%TD*%
D10*
%TO.C,C5*%
X59505409Y-93306574D03*
X58161907Y-91963072D03*
%TD*%
D23*
%TO.C,C1*%
X57266800Y-85902800D03*
X59166800Y-85902800D03*
%TD*%
D21*
%TO.C,R4*%
X55422800Y-84990300D03*
X55422800Y-86815300D03*
%TD*%
D14*
%TO.C,D20*%
X80010000Y-130794000D03*
X79060000Y-128794000D03*
X80960000Y-128794000D03*
%TD*%
D15*
%TO.C,R2*%
X61364500Y-62738000D03*
X59539500Y-62738000D03*
%TD*%
D14*
%TO.C,D4*%
X147701000Y-73517000D03*
X146751000Y-71517000D03*
X148651000Y-71517000D03*
%TD*%
%TO.C,D5*%
X185801000Y-73517000D03*
X184851000Y-71517000D03*
X186751000Y-71517000D03*
%TD*%
D24*
%TO.C,USB1*%
X48947000Y-64370000D03*
X49747000Y-64370000D03*
D25*
X50947000Y-64370000D03*
X51947000Y-64370000D03*
X52447000Y-64370000D03*
X53447000Y-64370000D03*
D24*
X54647000Y-64370000D03*
X55447000Y-64370000D03*
X55447000Y-64370000D03*
X54647000Y-64370000D03*
D25*
X53947000Y-64370000D03*
X52947000Y-64370000D03*
X51447000Y-64370000D03*
X50447000Y-64370000D03*
D24*
X49747000Y-64370000D03*
X48947000Y-64370000D03*
%TD*%
D14*
%TO.C,D22*%
X152400000Y-130794000D03*
X151450000Y-128794000D03*
X153350000Y-128794000D03*
%TD*%
%TO.C,D25*%
X252476000Y-76327000D03*
X251526000Y-74327000D03*
X253426000Y-74327000D03*
%TD*%
M02*
